G75*
G70*
%OFA0B0*%
%FSLAX24Y24*%
%IPPOS*%
%LPD*%
%AMOC8*
5,1,8,0,0,1.08239X$1,22.5*
%
%ADD10C,0.0060*%
%ADD11C,0.0050*%
%ADD12R,0.0150X0.0400*%
%ADD13C,0.0080*%
%ADD14C,0.0010*%
D10*
X002030Y012082D02*
X002030Y012309D01*
X002143Y012423D01*
X002257Y012309D01*
X002257Y012082D01*
X002398Y012082D02*
X002398Y012423D01*
X002568Y012423D01*
X002625Y012366D01*
X002625Y012253D01*
X002568Y012196D01*
X002398Y012196D01*
X002512Y012196D02*
X002625Y012082D01*
X002767Y012082D02*
X002993Y012082D01*
X003135Y012082D02*
X003135Y012423D01*
X003362Y012423D01*
X003248Y012253D02*
X003135Y012253D01*
X002993Y012423D02*
X002767Y012423D01*
X002767Y012082D01*
X002767Y012253D02*
X002880Y012253D01*
X002257Y012253D02*
X002030Y012253D01*
X002087Y013082D02*
X002200Y013082D01*
X002257Y013139D01*
X002257Y013253D01*
X002143Y013253D01*
X002030Y013366D02*
X002030Y013139D01*
X002087Y013082D01*
X002030Y013366D02*
X002087Y013423D01*
X002200Y013423D01*
X002257Y013366D01*
X002398Y013423D02*
X002398Y013082D01*
X002625Y013082D02*
X002398Y013423D01*
X002625Y013423D02*
X002625Y013082D01*
X002767Y013082D02*
X002937Y013082D01*
X002993Y013139D01*
X002993Y013366D01*
X002937Y013423D01*
X002767Y013423D01*
X002767Y013082D01*
X002568Y014082D02*
X002455Y014082D01*
X002398Y014139D01*
X002257Y014082D02*
X002030Y014082D01*
X002143Y014082D02*
X002143Y014423D01*
X002030Y014309D01*
X002398Y014366D02*
X002455Y014423D01*
X002568Y014423D01*
X002625Y014366D01*
X002625Y014309D01*
X002568Y014253D01*
X002625Y014196D01*
X002625Y014139D01*
X002568Y014082D01*
X002568Y014253D02*
X002512Y014253D01*
X002625Y015082D02*
X002398Y015082D01*
X002625Y015309D01*
X002625Y015366D01*
X002568Y015423D01*
X002455Y015423D01*
X002398Y015366D01*
X002257Y015082D02*
X002030Y015082D01*
X002143Y015082D02*
X002143Y015423D01*
X002030Y015309D01*
X002030Y016082D02*
X002257Y016082D01*
X002143Y016082D02*
X002143Y016423D01*
X002030Y016309D01*
X002398Y016309D02*
X002512Y016423D01*
X002512Y016082D01*
X002625Y016082D02*
X002398Y016082D01*
X002455Y017082D02*
X002398Y017139D01*
X002625Y017366D01*
X002625Y017139D01*
X002568Y017082D01*
X002455Y017082D01*
X002398Y017139D02*
X002398Y017366D01*
X002455Y017423D01*
X002568Y017423D01*
X002625Y017366D01*
X002257Y017082D02*
X002030Y017082D01*
X002143Y017082D02*
X002143Y017423D01*
X002030Y017309D01*
X002087Y018082D02*
X002200Y018082D01*
X002257Y018139D01*
X002257Y018366D01*
X002200Y018423D01*
X002087Y018423D01*
X002030Y018366D01*
X002030Y018309D01*
X002087Y018253D01*
X002257Y018253D01*
X002087Y018082D02*
X002030Y018139D01*
X002087Y019082D02*
X002030Y019139D01*
X002030Y019196D01*
X002087Y019253D01*
X002200Y019253D01*
X002257Y019196D01*
X002257Y019139D01*
X002200Y019082D01*
X002087Y019082D01*
X002087Y019253D02*
X002030Y019309D01*
X002030Y019366D01*
X002087Y019423D01*
X002200Y019423D01*
X002257Y019366D01*
X002257Y019309D01*
X002200Y019253D01*
X002030Y020582D02*
X002030Y020639D01*
X002257Y020866D01*
X002257Y020923D01*
X002030Y020923D01*
X002087Y021582D02*
X002200Y021582D01*
X002257Y021639D01*
X002257Y021696D01*
X002200Y021753D01*
X002030Y021753D01*
X002030Y021639D01*
X002087Y021582D01*
X002030Y021753D02*
X002143Y021866D01*
X002257Y021923D01*
X002200Y022582D02*
X002087Y022582D01*
X002030Y022639D01*
X002030Y022753D02*
X002143Y022809D01*
X002200Y022809D01*
X002257Y022753D01*
X002257Y022639D01*
X002200Y022582D01*
X002030Y022753D02*
X002030Y022923D01*
X002257Y022923D01*
X002200Y023582D02*
X002200Y023923D01*
X002030Y023753D01*
X002257Y023753D01*
X002200Y024582D02*
X002087Y024582D01*
X002030Y024639D01*
X002143Y024753D02*
X002200Y024753D01*
X002257Y024696D01*
X002257Y024639D01*
X002200Y024582D01*
X002200Y024753D02*
X002257Y024809D01*
X002257Y024866D01*
X002200Y024923D01*
X002087Y024923D01*
X002030Y024866D01*
X002030Y025582D02*
X002257Y025809D01*
X002257Y025866D01*
X002200Y025923D01*
X002087Y025923D01*
X002030Y025866D01*
X002030Y025582D02*
X002257Y025582D01*
X002143Y026582D02*
X002143Y026923D01*
X002030Y026923D02*
X002257Y026923D01*
X002398Y026923D02*
X002625Y026582D01*
X002398Y026582D02*
X002625Y026923D01*
X002625Y027582D02*
X002398Y027923D01*
X002257Y027866D02*
X002257Y027753D01*
X002200Y027696D01*
X002030Y027696D01*
X002143Y027696D02*
X002257Y027582D01*
X002398Y027582D02*
X002625Y027923D01*
X002257Y027866D02*
X002200Y027923D01*
X002030Y027923D01*
X002030Y027582D01*
X003500Y019902D02*
X003500Y019152D01*
X003539Y019150D01*
X003578Y019144D01*
X003616Y019135D01*
X003653Y019122D01*
X003689Y019105D01*
X003722Y019085D01*
X003754Y019061D01*
X003783Y019035D01*
X003809Y019006D01*
X003833Y018974D01*
X003853Y018941D01*
X003870Y018905D01*
X003883Y018868D01*
X003892Y018830D01*
X003898Y018791D01*
X003900Y018752D01*
X003898Y018713D01*
X003892Y018674D01*
X003883Y018636D01*
X003870Y018599D01*
X003853Y018563D01*
X003833Y018530D01*
X003809Y018498D01*
X003783Y018469D01*
X003754Y018443D01*
X003722Y018419D01*
X003689Y018399D01*
X003653Y018382D01*
X003616Y018369D01*
X003578Y018360D01*
X003539Y018354D01*
X003500Y018352D01*
X003500Y017602D01*
X007500Y017602D01*
X007500Y019902D01*
X003500Y019902D01*
X003500Y015402D02*
X003500Y014652D01*
X003539Y014650D01*
X003578Y014644D01*
X003616Y014635D01*
X003653Y014622D01*
X003689Y014605D01*
X003722Y014585D01*
X003754Y014561D01*
X003783Y014535D01*
X003809Y014506D01*
X003833Y014474D01*
X003853Y014441D01*
X003870Y014405D01*
X003883Y014368D01*
X003892Y014330D01*
X003898Y014291D01*
X003900Y014252D01*
X003898Y014213D01*
X003892Y014174D01*
X003883Y014136D01*
X003870Y014099D01*
X003853Y014063D01*
X003833Y014030D01*
X003809Y013998D01*
X003783Y013969D01*
X003754Y013943D01*
X003722Y013919D01*
X003689Y013899D01*
X003653Y013882D01*
X003616Y013869D01*
X003578Y013860D01*
X003539Y013854D01*
X003500Y013852D01*
X003500Y013102D01*
X007500Y013102D01*
X007500Y015402D01*
X003500Y015402D01*
X008500Y015402D02*
X008500Y014652D01*
X008539Y014650D01*
X008578Y014644D01*
X008616Y014635D01*
X008653Y014622D01*
X008689Y014605D01*
X008722Y014585D01*
X008754Y014561D01*
X008783Y014535D01*
X008809Y014506D01*
X008833Y014474D01*
X008853Y014441D01*
X008870Y014405D01*
X008883Y014368D01*
X008892Y014330D01*
X008898Y014291D01*
X008900Y014252D01*
X008898Y014213D01*
X008892Y014174D01*
X008883Y014136D01*
X008870Y014099D01*
X008853Y014063D01*
X008833Y014030D01*
X008809Y013998D01*
X008783Y013969D01*
X008754Y013943D01*
X008722Y013919D01*
X008689Y013899D01*
X008653Y013882D01*
X008616Y013869D01*
X008578Y013860D01*
X008539Y013854D01*
X008500Y013852D01*
X008500Y013102D01*
X015500Y013102D01*
X015500Y015402D01*
X008500Y015402D01*
X008500Y017602D02*
X008500Y018352D01*
X008539Y018354D01*
X008578Y018360D01*
X008616Y018369D01*
X008653Y018382D01*
X008689Y018399D01*
X008722Y018419D01*
X008754Y018443D01*
X008783Y018469D01*
X008809Y018498D01*
X008833Y018530D01*
X008853Y018563D01*
X008870Y018599D01*
X008883Y018636D01*
X008892Y018674D01*
X008898Y018713D01*
X008900Y018752D01*
X008898Y018791D01*
X008892Y018830D01*
X008883Y018868D01*
X008870Y018905D01*
X008853Y018941D01*
X008833Y018974D01*
X008809Y019006D01*
X008783Y019035D01*
X008754Y019061D01*
X008722Y019085D01*
X008689Y019105D01*
X008653Y019122D01*
X008616Y019135D01*
X008578Y019144D01*
X008539Y019150D01*
X008500Y019152D01*
X008500Y019902D01*
X012500Y019902D01*
X012500Y017602D01*
X008500Y017602D01*
X013500Y017602D02*
X013500Y018352D01*
X013539Y018354D01*
X013578Y018360D01*
X013616Y018369D01*
X013653Y018382D01*
X013689Y018399D01*
X013722Y018419D01*
X013754Y018443D01*
X013783Y018469D01*
X013809Y018498D01*
X013833Y018530D01*
X013853Y018563D01*
X013870Y018599D01*
X013883Y018636D01*
X013892Y018674D01*
X013898Y018713D01*
X013900Y018752D01*
X013898Y018791D01*
X013892Y018830D01*
X013883Y018868D01*
X013870Y018905D01*
X013853Y018941D01*
X013833Y018974D01*
X013809Y019006D01*
X013783Y019035D01*
X013754Y019061D01*
X013722Y019085D01*
X013689Y019105D01*
X013653Y019122D01*
X013616Y019135D01*
X013578Y019144D01*
X013539Y019150D01*
X013500Y019152D01*
X013500Y019902D01*
X017500Y019902D01*
X017500Y017602D01*
X013500Y017602D01*
X016050Y014552D02*
X017350Y014552D01*
X018650Y014552D01*
X018650Y014352D01*
X017350Y014352D01*
X017350Y014552D01*
X017250Y014052D02*
X018750Y014052D01*
X018750Y013452D01*
X017250Y013452D01*
X017250Y014052D01*
X017250Y013052D02*
X018750Y013052D01*
X018750Y012452D01*
X017250Y012452D01*
X017250Y013052D01*
X017250Y012052D02*
X018750Y012052D01*
X018750Y011452D01*
X017250Y011452D01*
X017250Y012052D01*
X017250Y011052D02*
X018750Y011052D01*
X018750Y010452D01*
X017250Y010452D01*
X017250Y011052D01*
X017350Y010152D02*
X017350Y009952D01*
X018650Y009952D01*
X019950Y009952D01*
X019950Y014552D01*
X018650Y014552D01*
X018880Y015582D02*
X018880Y015923D01*
X019050Y015923D01*
X019107Y015866D01*
X019107Y015753D01*
X019050Y015696D01*
X018880Y015696D01*
X018993Y015696D02*
X019107Y015582D01*
X019248Y015639D02*
X019305Y015582D01*
X019419Y015582D01*
X019475Y015639D01*
X019475Y015696D01*
X019419Y015753D01*
X019305Y015753D01*
X019248Y015809D01*
X019248Y015866D01*
X019305Y015923D01*
X019419Y015923D01*
X019475Y015866D01*
X019617Y015923D02*
X019844Y015923D01*
X019730Y015923D02*
X019730Y015582D01*
X019730Y016582D02*
X019844Y016696D01*
X019844Y016923D01*
X019617Y016923D02*
X019617Y016696D01*
X019730Y016582D01*
X019475Y016639D02*
X019419Y016582D01*
X019305Y016582D01*
X019248Y016639D01*
X019121Y016639D02*
X019121Y016582D01*
X019064Y016582D01*
X019064Y016639D01*
X019121Y016639D01*
X018923Y016639D02*
X018923Y016696D01*
X018866Y016753D01*
X018809Y016753D01*
X018866Y016753D02*
X018923Y016809D01*
X018923Y016866D01*
X018866Y016923D01*
X018753Y016923D01*
X018696Y016866D01*
X018554Y016753D02*
X018328Y016753D01*
X018441Y016866D02*
X018441Y016639D01*
X018696Y016639D02*
X018753Y016582D01*
X018866Y016582D01*
X018923Y016639D01*
X019248Y016866D02*
X019305Y016923D01*
X019419Y016923D01*
X019475Y016866D01*
X019475Y016809D01*
X019419Y016753D01*
X019475Y016696D01*
X019475Y016639D01*
X019419Y016753D02*
X019362Y016753D01*
X019419Y017582D02*
X019305Y017582D01*
X019248Y017639D01*
X019248Y017753D02*
X019362Y017809D01*
X019419Y017809D01*
X019475Y017753D01*
X019475Y017639D01*
X019419Y017582D01*
X019617Y017696D02*
X019730Y017582D01*
X019844Y017696D01*
X019844Y017923D01*
X019617Y017923D02*
X019617Y017696D01*
X019475Y017923D02*
X019248Y017923D01*
X019248Y017753D01*
X019107Y017753D02*
X018880Y017753D01*
X018993Y017866D02*
X018993Y017639D01*
X018937Y018582D02*
X019050Y018582D01*
X019107Y018639D01*
X019107Y018753D01*
X018993Y018753D01*
X018880Y018866D02*
X018880Y018639D01*
X018937Y018582D01*
X018880Y018866D02*
X018937Y018923D01*
X019050Y018923D01*
X019107Y018866D01*
X019248Y018923D02*
X019475Y018582D01*
X019475Y018923D01*
X019617Y018923D02*
X019617Y018582D01*
X019787Y018582D01*
X019844Y018639D01*
X019844Y018866D01*
X019787Y018923D01*
X019617Y018923D01*
X019248Y018923D02*
X019248Y018582D01*
X019248Y019582D02*
X019248Y019923D01*
X019475Y019582D01*
X019475Y019923D01*
X019617Y019923D02*
X019617Y019582D01*
X019787Y019582D01*
X019844Y019639D01*
X019844Y019866D01*
X019787Y019923D01*
X019617Y019923D01*
X019107Y019866D02*
X019050Y019923D01*
X018937Y019923D01*
X018880Y019866D01*
X018880Y019639D01*
X018937Y019582D01*
X019050Y019582D01*
X019107Y019639D01*
X019107Y019753D01*
X018993Y019753D01*
X019116Y020582D02*
X019230Y020696D01*
X019230Y020923D01*
X019371Y020923D02*
X019485Y020923D01*
X019428Y020923D02*
X019428Y020582D01*
X019371Y020582D02*
X019485Y020582D01*
X019617Y020582D02*
X019617Y020923D01*
X019844Y020582D01*
X019844Y020923D01*
X019116Y020582D02*
X019003Y020696D01*
X019003Y020923D01*
X019673Y022582D02*
X019617Y022639D01*
X019844Y022866D01*
X019844Y022639D01*
X019787Y022582D01*
X019673Y022582D01*
X019617Y022639D02*
X019617Y022866D01*
X019673Y022923D01*
X019787Y022923D01*
X019844Y022866D01*
X019844Y023582D02*
X019617Y023582D01*
X019730Y023582D02*
X019730Y023923D01*
X019617Y023809D01*
X019325Y023763D02*
X019098Y023763D01*
X018985Y023877D01*
X019098Y023990D01*
X019325Y023990D01*
X019325Y024131D02*
X019098Y024131D01*
X019098Y024302D01*
X019155Y024358D01*
X019325Y024358D01*
X019268Y024500D02*
X019325Y024556D01*
X019325Y024727D01*
X019155Y024727D01*
X019098Y024670D01*
X019098Y024556D01*
X019212Y024556D02*
X019212Y024727D01*
X019212Y024556D02*
X019268Y024500D01*
X019325Y024868D02*
X019325Y024981D01*
X019325Y024925D02*
X018985Y024925D01*
X018985Y024868D01*
X019155Y025114D02*
X019268Y025114D01*
X019325Y025170D01*
X019325Y025284D01*
X019268Y025340D01*
X019155Y025340D01*
X019098Y025284D01*
X019098Y025170D01*
X019155Y025114D01*
X019155Y025482D02*
X019268Y025482D01*
X019325Y025539D01*
X019325Y025709D01*
X019382Y025709D02*
X019098Y025709D01*
X019098Y025539D01*
X019155Y025482D01*
X019438Y025595D02*
X019438Y025652D01*
X019382Y025709D01*
X019617Y025639D02*
X019673Y025582D01*
X019787Y025582D01*
X019844Y025639D01*
X019844Y025696D01*
X019787Y025753D01*
X019730Y025753D01*
X019787Y025753D02*
X019844Y025809D01*
X019844Y025866D01*
X019787Y025923D01*
X019673Y025923D01*
X019617Y025866D01*
X019325Y026219D02*
X019325Y026332D01*
X019325Y026275D02*
X018985Y026275D01*
X018985Y026219D02*
X018985Y026332D01*
X019098Y026464D02*
X019098Y026634D01*
X019155Y026691D01*
X019325Y026691D01*
X019325Y026464D02*
X019098Y026464D01*
X019617Y026753D02*
X019844Y026753D01*
X019787Y026923D02*
X019617Y026753D01*
X019787Y026923D02*
X019787Y026582D01*
X019787Y027582D02*
X019673Y027582D01*
X019617Y027639D01*
X019617Y027753D02*
X019730Y027809D01*
X019787Y027809D01*
X019844Y027753D01*
X019844Y027639D01*
X019787Y027582D01*
X019617Y027753D02*
X019617Y027923D01*
X019844Y027923D01*
X019787Y024923D02*
X019673Y024923D01*
X019617Y024866D01*
X019787Y024923D02*
X019844Y024866D01*
X019844Y024809D01*
X019617Y024582D01*
X019844Y024582D01*
X019155Y023990D02*
X019155Y023763D01*
X016050Y014552D02*
X016050Y009952D01*
X017350Y009952D01*
X017350Y010152D02*
X018650Y010152D01*
X018650Y009952D01*
X018507Y008209D02*
X018400Y008209D01*
X018186Y007996D01*
X018186Y008209D02*
X018186Y007782D01*
X018724Y007889D02*
X018724Y008103D01*
X018830Y008209D01*
X019044Y008209D01*
X019151Y008103D01*
X019151Y007996D01*
X018724Y007996D01*
X018724Y007889D02*
X018830Y007782D01*
X019044Y007782D01*
X019368Y008209D02*
X019582Y007782D01*
X019795Y008209D01*
X020013Y008316D02*
X020119Y008423D01*
X020333Y008423D01*
X020440Y008316D01*
X020440Y008209D01*
X020333Y008103D01*
X020440Y007996D01*
X020440Y007889D01*
X020333Y007782D01*
X020119Y007782D01*
X020013Y007889D01*
X020226Y008103D02*
X020333Y008103D01*
X017324Y008423D02*
X016897Y007782D01*
X016680Y007782D02*
X016680Y008423D01*
X016466Y008209D01*
X016253Y008423D01*
X016253Y007782D01*
X016035Y007889D02*
X016035Y008316D01*
X015928Y008423D01*
X015608Y008423D01*
X015608Y007782D01*
X015928Y007782D01*
X016035Y007889D01*
X016897Y008423D02*
X017324Y007782D01*
X014746Y007782D02*
X014533Y007996D01*
X014639Y007996D02*
X014319Y007996D01*
X014319Y007782D02*
X014319Y008423D01*
X014639Y008423D01*
X014746Y008316D01*
X014746Y008103D01*
X014639Y007996D01*
X014102Y007996D02*
X014102Y008423D01*
X014102Y007996D02*
X013888Y007782D01*
X013675Y007996D01*
X013675Y008423D01*
X013457Y008209D02*
X013457Y007782D01*
X013457Y008103D02*
X013030Y008103D01*
X013030Y008209D02*
X013030Y007782D01*
X013030Y008209D02*
X013244Y008423D01*
X013457Y008209D01*
D11*
X002455Y008162D02*
X002455Y008027D01*
X002725Y008027D01*
X002635Y008027D02*
X002635Y008162D01*
X002590Y008208D01*
X002500Y008208D01*
X002455Y008162D01*
X002635Y008117D02*
X002725Y008208D01*
X002590Y008322D02*
X002590Y008502D01*
X002725Y008457D02*
X002455Y008457D01*
X002590Y008322D01*
X003355Y008467D02*
X003625Y008467D01*
X003625Y008377D02*
X003625Y008558D01*
X003580Y008672D02*
X003400Y008852D01*
X003580Y008852D01*
X003625Y008807D01*
X003625Y008717D01*
X003580Y008672D01*
X003400Y008672D01*
X003355Y008717D01*
X003355Y008807D01*
X003400Y008852D01*
X003355Y008967D02*
X003625Y008967D01*
X003535Y008967D02*
X003355Y009147D01*
X003490Y009012D02*
X003625Y009147D01*
X003355Y008467D02*
X003445Y008377D01*
X004455Y008367D02*
X004455Y008457D01*
X004500Y008502D01*
X004545Y008502D01*
X004590Y008457D01*
X004635Y008502D01*
X004680Y008502D01*
X004725Y008457D01*
X004725Y008367D01*
X004680Y008322D01*
X004725Y008208D02*
X004635Y008117D01*
X004635Y008162D02*
X004635Y008027D01*
X004725Y008027D02*
X004455Y008027D01*
X004455Y008162D01*
X004500Y008208D01*
X004590Y008208D01*
X004635Y008162D01*
X004500Y008322D02*
X004455Y008367D01*
X004590Y008412D02*
X004590Y008457D01*
X005355Y008467D02*
X005625Y008467D01*
X005625Y008377D02*
X005625Y008558D01*
X005580Y008672D02*
X005400Y008852D01*
X005580Y008852D01*
X005625Y008807D01*
X005625Y008717D01*
X005580Y008672D01*
X005400Y008672D01*
X005355Y008717D01*
X005355Y008807D01*
X005400Y008852D01*
X005355Y008967D02*
X005625Y008967D01*
X005535Y008967D02*
X005355Y009147D01*
X005490Y009012D02*
X005625Y009147D01*
X005355Y008467D02*
X005445Y008377D01*
X006455Y008367D02*
X006500Y008322D01*
X006455Y008367D02*
X006455Y008457D01*
X006500Y008502D01*
X006545Y008502D01*
X006725Y008322D01*
X006725Y008502D01*
X006725Y008208D02*
X006635Y008117D01*
X006635Y008162D02*
X006635Y008027D01*
X006725Y008027D02*
X006455Y008027D01*
X006455Y008162D01*
X006500Y008208D01*
X006590Y008208D01*
X006635Y008162D01*
X007355Y008467D02*
X007625Y008467D01*
X007625Y008377D02*
X007625Y008558D01*
X007580Y008672D02*
X007400Y008852D01*
X007580Y008852D01*
X007625Y008807D01*
X007625Y008717D01*
X007580Y008672D01*
X007400Y008672D01*
X007355Y008717D01*
X007355Y008807D01*
X007400Y008852D01*
X007355Y008967D02*
X007625Y008967D01*
X007535Y008967D02*
X007355Y009147D01*
X007490Y009012D02*
X007625Y009147D01*
X007355Y008467D02*
X007445Y008377D01*
X008455Y008412D02*
X008725Y008412D01*
X008725Y008322D02*
X008725Y008502D01*
X008545Y008322D02*
X008455Y008412D01*
X008500Y008208D02*
X008590Y008208D01*
X008635Y008162D01*
X008635Y008027D01*
X008725Y008027D02*
X008455Y008027D01*
X008455Y008162D01*
X008500Y008208D01*
X008635Y008117D02*
X008725Y008208D01*
X009355Y008467D02*
X009625Y008467D01*
X009625Y008377D02*
X009625Y008558D01*
X009580Y008672D02*
X009400Y008852D01*
X009580Y008852D01*
X009625Y008807D01*
X009625Y008717D01*
X009580Y008672D01*
X009400Y008672D01*
X009355Y008717D01*
X009355Y008807D01*
X009400Y008852D01*
X009355Y008967D02*
X009625Y008967D01*
X009535Y008967D02*
X009355Y009147D01*
X009490Y009012D02*
X009625Y009147D01*
X009355Y008467D02*
X009445Y008377D01*
X008325Y013077D02*
X008325Y013227D01*
X008325Y013152D02*
X007875Y013152D01*
X007875Y013077D02*
X007875Y013227D01*
X007875Y013384D02*
X008325Y013685D01*
X007875Y013685D01*
X007875Y013845D02*
X008175Y013845D01*
X008325Y013995D01*
X008175Y014145D01*
X007875Y014145D01*
X007875Y014305D02*
X008325Y014305D01*
X008325Y014605D01*
X008325Y014765D02*
X007875Y014765D01*
X007875Y014991D01*
X007950Y015066D01*
X008100Y015066D01*
X008175Y014991D01*
X008175Y014765D01*
X008175Y014916D02*
X008325Y015066D01*
X008325Y015376D02*
X007875Y015376D01*
X007875Y015226D02*
X007875Y015526D01*
X007875Y015686D02*
X008325Y015686D01*
X008325Y015987D01*
X008325Y016147D02*
X007875Y016147D01*
X007875Y016372D01*
X007950Y016447D01*
X008100Y016447D01*
X008175Y016372D01*
X008175Y016147D01*
X008175Y016297D02*
X008325Y016447D01*
X007875Y015987D02*
X007875Y015686D01*
X008100Y015686D02*
X008100Y015836D01*
X007875Y014605D02*
X007875Y014305D01*
X008100Y014305D02*
X008100Y014455D01*
X008325Y013384D02*
X007875Y013384D01*
X007925Y017627D02*
X007925Y017853D01*
X008000Y017928D01*
X008300Y017928D01*
X008375Y017853D01*
X008375Y017627D01*
X007925Y017627D01*
X007925Y018088D02*
X007925Y018313D01*
X008000Y018388D01*
X008150Y018388D01*
X008225Y018313D01*
X008225Y018088D01*
X008225Y018238D02*
X008375Y018388D01*
X008375Y018548D02*
X008375Y018698D01*
X008375Y018623D02*
X007925Y018623D01*
X007925Y018548D02*
X007925Y018698D01*
X007925Y018855D02*
X008225Y018855D01*
X008375Y019005D01*
X008225Y019155D01*
X007925Y019155D01*
X007925Y019315D02*
X008375Y019315D01*
X008375Y019616D01*
X008375Y019776D02*
X007925Y019776D01*
X007925Y020001D01*
X008000Y020076D01*
X008150Y020076D01*
X008225Y020001D01*
X008225Y019776D01*
X008225Y019926D02*
X008375Y020076D01*
X008300Y020236D02*
X008375Y020311D01*
X008375Y020461D01*
X008300Y020537D01*
X008225Y020537D01*
X008150Y020461D01*
X008150Y020386D01*
X008150Y020461D02*
X008075Y020537D01*
X008000Y020537D01*
X007925Y020461D01*
X007925Y020311D01*
X008000Y020236D01*
X007925Y019616D02*
X007925Y019315D01*
X008150Y019315D02*
X008150Y019466D01*
X008375Y018088D02*
X007925Y018088D01*
X003375Y018088D02*
X002925Y018088D01*
X002925Y018313D01*
X003000Y018388D01*
X003150Y018388D01*
X003225Y018313D01*
X003225Y018088D01*
X003225Y018238D02*
X003375Y018388D01*
X003375Y018548D02*
X003375Y018698D01*
X003375Y018623D02*
X002925Y018623D01*
X002925Y018548D02*
X002925Y018698D01*
X002925Y018855D02*
X003225Y018855D01*
X003375Y019005D01*
X003225Y019155D01*
X002925Y019155D01*
X002925Y019315D02*
X003375Y019315D01*
X003375Y019616D01*
X003375Y019776D02*
X002925Y019776D01*
X002925Y020001D01*
X003000Y020076D01*
X003150Y020076D01*
X003225Y020001D01*
X003225Y019776D01*
X003225Y019926D02*
X003375Y020076D01*
X003150Y020236D02*
X003150Y020537D01*
X003375Y020461D02*
X002925Y020461D01*
X003150Y020236D01*
X002925Y019616D02*
X002925Y019315D01*
X003150Y019315D02*
X003150Y019466D01*
X003300Y017928D02*
X003000Y017928D01*
X002925Y017853D01*
X002925Y017627D01*
X003375Y017627D01*
X003375Y017853D01*
X003300Y017928D01*
X003375Y016037D02*
X003375Y015736D01*
X003375Y015886D02*
X002925Y015886D01*
X003075Y015736D01*
X003150Y015576D02*
X003225Y015501D01*
X003225Y015276D01*
X003225Y015426D02*
X003375Y015576D01*
X003150Y015576D02*
X003000Y015576D01*
X002925Y015501D01*
X002925Y015276D01*
X003375Y015276D01*
X003375Y015116D02*
X003375Y014815D01*
X002925Y014815D01*
X002925Y015116D01*
X003150Y014966D02*
X003150Y014815D01*
X003225Y014655D02*
X002925Y014655D01*
X003225Y014655D02*
X003375Y014505D01*
X003225Y014355D01*
X002925Y014355D01*
X002925Y014198D02*
X002925Y014048D01*
X002925Y014123D02*
X003375Y014123D01*
X003375Y014048D02*
X003375Y014198D01*
X003375Y013888D02*
X003225Y013738D01*
X003225Y013813D02*
X003225Y013588D01*
X003375Y013588D02*
X002925Y013588D01*
X002925Y013813D01*
X003000Y013888D01*
X003150Y013888D01*
X003225Y013813D01*
X003300Y013428D02*
X003000Y013428D01*
X002925Y013353D01*
X002925Y013127D01*
X003375Y013127D01*
X003375Y013353D01*
X003300Y013428D01*
X012925Y017627D02*
X012925Y017853D01*
X013000Y017928D01*
X013300Y017928D01*
X013375Y017853D01*
X013375Y017627D01*
X012925Y017627D01*
X012925Y018088D02*
X012925Y018313D01*
X013000Y018388D01*
X013150Y018388D01*
X013225Y018313D01*
X013225Y018088D01*
X013225Y018238D02*
X013375Y018388D01*
X013375Y018548D02*
X013375Y018698D01*
X013375Y018623D02*
X012925Y018623D01*
X012925Y018548D02*
X012925Y018698D01*
X012925Y018855D02*
X013225Y018855D01*
X013375Y019005D01*
X013225Y019155D01*
X012925Y019155D01*
X012925Y019315D02*
X013375Y019315D01*
X013375Y019616D01*
X013375Y019776D02*
X012925Y019776D01*
X012925Y020001D01*
X013000Y020076D01*
X013150Y020076D01*
X013225Y020001D01*
X013225Y019776D01*
X013225Y019926D02*
X013375Y020076D01*
X013375Y020236D02*
X013075Y020537D01*
X013000Y020537D01*
X012925Y020461D01*
X012925Y020311D01*
X013000Y020236D01*
X013375Y020236D02*
X013375Y020537D01*
X012925Y019616D02*
X012925Y019315D01*
X013150Y019315D02*
X013150Y019466D01*
X013375Y018088D02*
X012925Y018088D01*
X015425Y011048D02*
X015875Y011048D01*
X015875Y010898D02*
X015875Y011198D01*
X015875Y010738D02*
X015425Y010738D01*
X015575Y010898D02*
X015425Y011048D01*
X015875Y010738D02*
X015725Y010588D01*
X015875Y010438D01*
X015425Y010438D01*
X015500Y010278D02*
X015425Y010203D01*
X015425Y010052D01*
X015500Y009977D01*
X015575Y009977D01*
X015650Y010052D01*
X015650Y010203D01*
X015725Y010278D01*
X015800Y010278D01*
X015875Y010203D01*
X015875Y010052D01*
X015800Y009977D01*
D12*
X018075Y010752D03*
X018325Y010752D03*
X018575Y010752D03*
X018575Y011752D03*
X018325Y011752D03*
X018075Y011752D03*
X018075Y012752D03*
X018325Y012752D03*
X018575Y012752D03*
X018575Y013752D03*
X018325Y013752D03*
X018075Y013752D03*
D13*
X017157Y021453D02*
X010780Y021453D01*
X010780Y021847D01*
X017157Y021847D01*
X017157Y021453D01*
X017157Y021847D02*
X017157Y024406D01*
X010780Y024406D01*
X010780Y021847D01*
X009657Y021847D02*
X009657Y021453D01*
X003280Y021453D01*
X003280Y021847D01*
X009657Y021847D01*
X009657Y024406D01*
X003280Y024406D01*
X003280Y021847D01*
X003343Y025099D02*
X003343Y027658D01*
X009720Y027658D01*
X009720Y025099D01*
X003343Y025099D01*
X003343Y027658D02*
X003343Y028052D01*
X009720Y028052D01*
X009720Y027658D01*
X010843Y027658D02*
X017220Y027658D01*
X017220Y025099D01*
X010843Y025099D01*
X010843Y027658D01*
X010843Y028052D01*
X017220Y028052D01*
X017220Y027658D01*
X009972Y010493D02*
X009028Y010493D01*
X009028Y008012D01*
X009972Y008012D01*
X009972Y010493D01*
X007972Y010493D02*
X007972Y008012D01*
X007028Y008012D01*
X007028Y010493D01*
X007972Y010493D01*
X005972Y010493D02*
X005972Y008012D01*
X005028Y008012D01*
X005028Y010493D01*
X005972Y010493D01*
X003972Y010493D02*
X003972Y008012D01*
X003028Y008012D01*
X003028Y010493D01*
X003972Y010493D01*
D14*
X004055Y023757D02*
X004055Y023907D01*
X004005Y023907D02*
X004105Y023907D01*
X004152Y023857D02*
X004202Y023907D01*
X004252Y023857D01*
X004252Y023757D01*
X004300Y023757D02*
X004350Y023757D01*
X004325Y023757D02*
X004325Y023907D01*
X004300Y023907D02*
X004350Y023907D01*
X004398Y023907D02*
X004398Y023757D01*
X004498Y023757D01*
X004545Y023757D02*
X004645Y023857D01*
X004645Y023882D01*
X004620Y023907D01*
X004570Y023907D01*
X004545Y023882D01*
X004545Y023757D02*
X004645Y023757D01*
X004252Y023832D02*
X004152Y023832D01*
X004152Y023857D02*
X004152Y023757D01*
X008368Y025597D02*
X008368Y025747D01*
X008418Y025747D02*
X008317Y025747D01*
X008465Y025697D02*
X008515Y025747D01*
X008565Y025697D01*
X008565Y025597D01*
X008612Y025597D02*
X008662Y025597D01*
X008637Y025597D02*
X008637Y025747D01*
X008612Y025747D02*
X008662Y025747D01*
X008710Y025747D02*
X008710Y025597D01*
X008810Y025597D01*
X008858Y025672D02*
X008958Y025672D01*
X008933Y025597D02*
X008933Y025747D01*
X008858Y025672D01*
X008565Y025672D02*
X008465Y025672D01*
X008465Y025697D02*
X008465Y025597D01*
X011505Y023907D02*
X011605Y023907D01*
X011555Y023907D02*
X011555Y023757D01*
X011652Y023757D02*
X011652Y023857D01*
X011702Y023907D01*
X011752Y023857D01*
X011752Y023757D01*
X011800Y023757D02*
X011850Y023757D01*
X011825Y023757D02*
X011825Y023907D01*
X011800Y023907D02*
X011850Y023907D01*
X011898Y023907D02*
X011898Y023757D01*
X011998Y023757D01*
X012045Y023757D02*
X012145Y023757D01*
X012095Y023757D02*
X012095Y023907D01*
X012045Y023857D01*
X011752Y023832D02*
X011652Y023832D01*
X015868Y025597D02*
X015868Y025747D01*
X015918Y025747D02*
X015817Y025747D01*
X015965Y025697D02*
X016015Y025747D01*
X016065Y025697D01*
X016065Y025597D01*
X016112Y025597D02*
X016162Y025597D01*
X016137Y025597D02*
X016137Y025747D01*
X016112Y025747D02*
X016162Y025747D01*
X016210Y025747D02*
X016210Y025597D01*
X016310Y025597D01*
X016358Y025622D02*
X016383Y025597D01*
X016433Y025597D01*
X016458Y025622D01*
X016458Y025647D01*
X016433Y025672D01*
X016408Y025672D01*
X016433Y025672D02*
X016458Y025697D01*
X016458Y025722D01*
X016433Y025747D01*
X016383Y025747D01*
X016358Y025722D01*
X016065Y025672D02*
X015965Y025672D01*
X015965Y025697D02*
X015965Y025597D01*
M02*
