%
M48
M72
T01C0.0200
T02C0.0320
T03C0.0354
T04C0.0400
T05C0.0512
T06C0.1300
%
T01
X14000Y14252
X13500Y21752
T02
X14000Y20252
X15000Y20252
X16000Y20252
X17000Y20252
X17000Y17252
X16000Y17252
X15000Y17252
X14000Y17252
X14000Y15752
X13000Y15752
X12000Y15752
X11000Y15752
X10000Y15752
X9000Y15752
X9000Y17252
X10000Y17252
X11000Y17252
X12000Y17252
X12000Y20252
X11000Y20252
X10000Y20252
X9000Y20252
X7000Y20252
X6000Y20252
X5000Y20252
X4000Y20252
X4000Y17252
X5000Y17252
X6000Y17252
X7000Y17252
X7000Y15752
X6000Y15752
X5000Y15752
X4000Y15752
X4000Y12752
X5000Y12752
X6000Y12752
X7000Y12752
X9000Y12752
X10000Y12752
X11000Y12752
X12000Y12752
X13000Y12752
X14000Y12752
X15000Y12752
X16500Y12752
X16500Y13752
X16500Y11752
X16500Y10752
X19500Y10752
X19500Y11752
X19500Y12752
X19500Y13752
X15000Y15752
T03
X3500Y7252
X5500Y7252
X7500Y7252
X9500Y7252
X9500Y11252
X7500Y11252
X5500Y11252
X3500Y11252
T04
X1500Y12252
X1500Y13252
X1500Y14252
X1500Y15252
X1500Y16252
X1500Y17252
X1500Y18252
X1500Y19252
X1500Y20752
X1500Y21752
X1500Y22752
X1500Y23752
X1500Y24752
X1500Y25752
X1500Y26752
X1500Y27752
X20500Y27752
X20500Y26752
X20500Y25752
X20500Y24752
X20500Y23752
X20500Y22752
X20500Y20752
X20500Y19752
X20500Y18752
X20500Y17752
X20500Y16752
X20500Y15752
T05
X15937Y22752
X13969Y22752
X12000Y22752
X12063Y26752
X14031Y26752
X16000Y26752
X8500Y26752
X6531Y26752
X4563Y26752
X4500Y22752
X6469Y22752
X8437Y22752
T06
X1500Y8752
X18500Y28752
M30
