G75*
G70*
%OFA0B0*%
%FSLAX24Y24*%
%IPPOS*%
%LPD*%
%AMOC8*
5,1,8,0,0,1.08239X$1,22.5*
%
%ADD10C,0.0000*%
%ADD11C,0.0740*%
%ADD12C,0.0560*%
%ADD13R,0.0950X0.0950*%
%ADD14C,0.0950*%
%ADD15C,0.0100*%
%ADD16C,0.0440*%
D10*
X000500Y006252D02*
X000500Y030248D01*
X021370Y030248D01*
X021370Y006252D01*
X000500Y006252D01*
X000850Y008752D02*
X000852Y008802D01*
X000858Y008852D01*
X000868Y008902D01*
X000881Y008950D01*
X000898Y008998D01*
X000919Y009044D01*
X000943Y009088D01*
X000971Y009130D01*
X001002Y009170D01*
X001036Y009207D01*
X001073Y009242D01*
X001112Y009273D01*
X001153Y009302D01*
X001197Y009327D01*
X001243Y009349D01*
X001290Y009367D01*
X001338Y009381D01*
X001387Y009392D01*
X001437Y009399D01*
X001487Y009402D01*
X001538Y009401D01*
X001588Y009396D01*
X001638Y009387D01*
X001686Y009375D01*
X001734Y009358D01*
X001780Y009338D01*
X001825Y009315D01*
X001868Y009288D01*
X001908Y009258D01*
X001946Y009225D01*
X001981Y009189D01*
X002014Y009150D01*
X002043Y009109D01*
X002069Y009066D01*
X002092Y009021D01*
X002111Y008974D01*
X002126Y008926D01*
X002138Y008877D01*
X002146Y008827D01*
X002150Y008777D01*
X002150Y008727D01*
X002146Y008677D01*
X002138Y008627D01*
X002126Y008578D01*
X002111Y008530D01*
X002092Y008483D01*
X002069Y008438D01*
X002043Y008395D01*
X002014Y008354D01*
X001981Y008315D01*
X001946Y008279D01*
X001908Y008246D01*
X001868Y008216D01*
X001825Y008189D01*
X001780Y008166D01*
X001734Y008146D01*
X001686Y008129D01*
X001638Y008117D01*
X001588Y008108D01*
X001538Y008103D01*
X001487Y008102D01*
X001437Y008105D01*
X001387Y008112D01*
X001338Y008123D01*
X001290Y008137D01*
X001243Y008155D01*
X001197Y008177D01*
X001153Y008202D01*
X001112Y008231D01*
X001073Y008262D01*
X001036Y008297D01*
X001002Y008334D01*
X000971Y008374D01*
X000943Y008416D01*
X000919Y008460D01*
X000898Y008506D01*
X000881Y008554D01*
X000868Y008602D01*
X000858Y008652D01*
X000852Y008702D01*
X000850Y008752D01*
X017850Y028752D02*
X017852Y028802D01*
X017858Y028852D01*
X017868Y028902D01*
X017881Y028950D01*
X017898Y028998D01*
X017919Y029044D01*
X017943Y029088D01*
X017971Y029130D01*
X018002Y029170D01*
X018036Y029207D01*
X018073Y029242D01*
X018112Y029273D01*
X018153Y029302D01*
X018197Y029327D01*
X018243Y029349D01*
X018290Y029367D01*
X018338Y029381D01*
X018387Y029392D01*
X018437Y029399D01*
X018487Y029402D01*
X018538Y029401D01*
X018588Y029396D01*
X018638Y029387D01*
X018686Y029375D01*
X018734Y029358D01*
X018780Y029338D01*
X018825Y029315D01*
X018868Y029288D01*
X018908Y029258D01*
X018946Y029225D01*
X018981Y029189D01*
X019014Y029150D01*
X019043Y029109D01*
X019069Y029066D01*
X019092Y029021D01*
X019111Y028974D01*
X019126Y028926D01*
X019138Y028877D01*
X019146Y028827D01*
X019150Y028777D01*
X019150Y028727D01*
X019146Y028677D01*
X019138Y028627D01*
X019126Y028578D01*
X019111Y028530D01*
X019092Y028483D01*
X019069Y028438D01*
X019043Y028395D01*
X019014Y028354D01*
X018981Y028315D01*
X018946Y028279D01*
X018908Y028246D01*
X018868Y028216D01*
X018825Y028189D01*
X018780Y028166D01*
X018734Y028146D01*
X018686Y028129D01*
X018638Y028117D01*
X018588Y028108D01*
X018538Y028103D01*
X018487Y028102D01*
X018437Y028105D01*
X018387Y028112D01*
X018338Y028123D01*
X018290Y028137D01*
X018243Y028155D01*
X018197Y028177D01*
X018153Y028202D01*
X018112Y028231D01*
X018073Y028262D01*
X018036Y028297D01*
X018002Y028334D01*
X017971Y028374D01*
X017943Y028416D01*
X017919Y028460D01*
X017898Y028506D01*
X017881Y028554D01*
X017868Y028602D01*
X017858Y028652D01*
X017852Y028702D01*
X017850Y028752D01*
D11*
X020500Y027752D03*
X020500Y026752D03*
X020500Y025752D03*
X020500Y024752D03*
X020500Y023752D03*
X020500Y022752D03*
X020500Y020752D03*
X020500Y019752D03*
X020500Y018752D03*
X020500Y017752D03*
X020500Y016752D03*
X020500Y015752D03*
X009500Y011252D03*
X007500Y011252D03*
X005500Y011252D03*
X003500Y011252D03*
X001500Y012252D03*
X001500Y013252D03*
X001500Y014252D03*
X001500Y015252D03*
X001500Y016252D03*
X001500Y017252D03*
X001500Y018252D03*
X001500Y019252D03*
X001500Y020752D03*
X001500Y021752D03*
X001500Y022752D03*
X001500Y023752D03*
X001500Y024752D03*
X001500Y025752D03*
X001500Y026752D03*
X001500Y027752D03*
X003500Y007252D03*
X005500Y007252D03*
X007500Y007252D03*
X009500Y007252D03*
D12*
X009000Y012472D02*
X009000Y013032D01*
X010000Y013032D02*
X010000Y012472D01*
X011000Y012472D02*
X011000Y013032D01*
X012000Y013032D02*
X012000Y012472D01*
X013000Y012472D02*
X013000Y013032D01*
X014000Y013032D02*
X014000Y012472D01*
X015000Y012472D02*
X015000Y013032D01*
X016220Y012752D02*
X016780Y012752D01*
X016780Y013752D02*
X016220Y013752D01*
X015000Y015472D02*
X015000Y016032D01*
X014500Y016972D02*
X014500Y017532D01*
X013500Y017532D02*
X013500Y016972D01*
X013000Y016032D02*
X013000Y015472D01*
X014000Y015472D02*
X014000Y016032D01*
X015500Y016972D02*
X015500Y017532D01*
X016500Y017532D02*
X016500Y016972D01*
X016500Y019972D02*
X016500Y020532D01*
X015500Y020532D02*
X015500Y019972D01*
X014500Y019972D02*
X014500Y020532D01*
X013500Y020532D02*
X013500Y019972D01*
X011500Y019972D02*
X011500Y020532D01*
X010500Y020532D02*
X010500Y019972D01*
X009500Y019972D02*
X009500Y020532D01*
X008500Y020532D02*
X008500Y019972D01*
X008500Y017532D02*
X008500Y016972D01*
X009000Y016032D02*
X009000Y015472D01*
X010000Y015472D02*
X010000Y016032D01*
X009500Y016972D02*
X009500Y017532D01*
X010500Y017532D02*
X010500Y016972D01*
X011000Y016032D02*
X011000Y015472D01*
X012000Y015472D02*
X012000Y016032D01*
X011500Y016972D02*
X011500Y017532D01*
X016220Y011752D02*
X016780Y011752D01*
X016780Y010752D02*
X016220Y010752D01*
X019220Y010752D02*
X019780Y010752D01*
X019780Y011752D02*
X019220Y011752D01*
X019220Y012752D02*
X019780Y012752D01*
X019780Y013752D02*
X019220Y013752D01*
X006500Y013032D02*
X006500Y012472D01*
X005500Y012472D02*
X005500Y013032D01*
X004500Y013032D02*
X004500Y012472D01*
X003500Y012472D02*
X003500Y013032D01*
X003500Y015472D02*
X003500Y016032D01*
X003500Y016972D02*
X003500Y017532D01*
X004500Y017532D02*
X004500Y016972D01*
X004500Y016032D02*
X004500Y015472D01*
X005500Y015472D02*
X005500Y016032D01*
X005500Y016972D02*
X005500Y017532D01*
X006500Y017532D02*
X006500Y016972D01*
X006500Y016032D02*
X006500Y015472D01*
X006500Y019972D02*
X006500Y020532D01*
X005500Y020532D02*
X005500Y019972D01*
X004500Y019972D02*
X004500Y020532D01*
X003500Y020532D02*
X003500Y019972D01*
D13*
X004500Y022752D03*
X008500Y026752D03*
X012000Y022752D03*
X016000Y026752D03*
D14*
X014031Y026752D03*
X012063Y026752D03*
X013969Y022752D03*
X015937Y022752D03*
X008437Y022752D03*
X006469Y022752D03*
X006531Y026752D03*
X004563Y026752D03*
D15*
X005500Y025752D02*
X006500Y026752D01*
X006531Y026752D01*
X005500Y025752D02*
X005500Y022252D01*
X004500Y021252D01*
X004500Y020252D01*
X004000Y019752D02*
X004000Y022252D01*
X004500Y022752D01*
X006000Y022252D02*
X005000Y021252D01*
X005000Y019752D01*
X006000Y018752D01*
X006000Y014752D01*
X005500Y014752D01*
X004500Y015752D01*
X004000Y016252D02*
X004000Y011752D01*
X003500Y011252D01*
X003500Y012752D02*
X003500Y013752D01*
X002500Y014752D01*
X002500Y019752D01*
X001500Y019752D01*
X001000Y020252D01*
X001000Y024252D01*
X001500Y024752D01*
X001500Y022752D02*
X003000Y021252D01*
X003000Y017752D01*
X003500Y017252D01*
X004000Y016752D02*
X004000Y019252D01*
X003500Y019752D01*
X003500Y020252D01*
X004000Y019752D02*
X005000Y018752D01*
X005000Y016252D01*
X005500Y015752D01*
X006500Y015752D02*
X007000Y016252D01*
X007000Y007252D01*
X007500Y007252D01*
X009500Y007252D01*
X007500Y009752D02*
X007500Y011252D01*
X006500Y011252D02*
X006500Y011752D01*
X005500Y012752D01*
X003500Y015752D02*
X003500Y016252D01*
X004000Y016752D01*
X004000Y016252D02*
X004500Y016752D01*
X004500Y017252D01*
X005500Y020252D02*
X006000Y020752D01*
X006000Y021252D01*
X008500Y023752D01*
X008500Y026752D01*
X011000Y023752D02*
X014000Y026752D01*
X014031Y026752D01*
X016000Y026752D02*
X013000Y023752D01*
X013000Y021752D01*
X012000Y021752D01*
X010500Y020252D01*
X010500Y019252D02*
X008000Y019252D01*
X008000Y017252D01*
X007000Y016252D01*
X009000Y016752D02*
X009500Y016252D01*
X009500Y012252D01*
X009500Y011252D01*
X009500Y012252D02*
X009000Y012752D01*
X010000Y012752D02*
X011500Y011252D01*
X015500Y011252D01*
X015500Y017252D01*
X016000Y017752D02*
X013500Y020252D01*
X014000Y020752D02*
X014000Y022752D01*
X013969Y022752D01*
X014000Y020752D02*
X014500Y020252D01*
X013000Y018752D02*
X009000Y018752D01*
X009000Y016752D01*
X009500Y017252D02*
X010500Y018252D01*
X012500Y018252D01*
X012500Y013252D01*
X013000Y012752D01*
X013000Y011752D02*
X011500Y011752D01*
X011500Y016252D01*
X010500Y017252D01*
X010500Y019252D02*
X011500Y020252D01*
X011000Y021752D02*
X011000Y023752D01*
X011000Y021752D02*
X009500Y020252D01*
X008000Y020252D02*
X008000Y019252D01*
X008000Y020252D02*
X006500Y020252D01*
X008000Y020252D02*
X008000Y022752D01*
X008437Y022752D01*
X006469Y022752D02*
X006000Y022752D01*
X006000Y022252D01*
X013000Y018752D02*
X014500Y017252D01*
X016000Y017752D02*
X016000Y016252D01*
X017500Y014752D01*
X020500Y017752D01*
X017500Y014752D02*
X016500Y013752D01*
X016500Y012752D01*
X016500Y011752D01*
X016500Y010752D01*
X017500Y009752D02*
X007500Y009752D01*
X007000Y007252D02*
X005500Y007252D01*
X003500Y007252D01*
X013000Y011752D02*
X014000Y012752D01*
X017500Y009752D02*
X019500Y011752D01*
X016500Y020252D02*
X016000Y020752D01*
X016000Y022752D01*
X015937Y022752D01*
D16*
X006500Y011252D03*
M02*
