G75*
G70*
%OFA0B0*%
%FSLAX24Y24*%
%IPPOS*%
%LPD*%
%AMOC8*
5,1,8,0,0,1.08239X$1,22.5*
%
%ADD10C,0.0060*%
%ADD11R,0.0150X0.0400*%
%ADD12C,0.0080*%
%ADD13C,0.0050*%
D10*
X002030Y012082D02*
X002030Y012309D01*
X002143Y012423D01*
X002257Y012309D01*
X002257Y012082D01*
X002398Y012082D02*
X002398Y012423D01*
X002568Y012423D01*
X002625Y012366D01*
X002625Y012253D01*
X002568Y012196D01*
X002398Y012196D01*
X002512Y012196D02*
X002625Y012082D01*
X002767Y012082D02*
X002993Y012082D01*
X003135Y012082D02*
X003135Y012423D01*
X003362Y012423D01*
X003248Y012253D02*
X003135Y012253D01*
X002993Y012423D02*
X002767Y012423D01*
X002767Y012082D01*
X002767Y012253D02*
X002880Y012253D01*
X002257Y012253D02*
X002030Y012253D01*
X002087Y013082D02*
X002200Y013082D01*
X002257Y013139D01*
X002257Y013253D01*
X002143Y013253D01*
X002030Y013366D02*
X002030Y013139D01*
X002087Y013082D01*
X002030Y013366D02*
X002087Y013423D01*
X002200Y013423D01*
X002257Y013366D01*
X002398Y013423D02*
X002398Y013082D01*
X002625Y013082D02*
X002398Y013423D01*
X002625Y013423D02*
X002625Y013082D01*
X002767Y013082D02*
X002937Y013082D01*
X002993Y013139D01*
X002993Y013366D01*
X002937Y013423D01*
X002767Y013423D01*
X002767Y013082D01*
X003000Y013102D02*
X003000Y013852D01*
X003039Y013854D01*
X003078Y013860D01*
X003116Y013869D01*
X003153Y013882D01*
X003189Y013899D01*
X003222Y013919D01*
X003254Y013943D01*
X003283Y013969D01*
X003309Y013998D01*
X003333Y014030D01*
X003353Y014063D01*
X003370Y014099D01*
X003383Y014136D01*
X003392Y014174D01*
X003398Y014213D01*
X003400Y014252D01*
X003398Y014291D01*
X003392Y014330D01*
X003383Y014368D01*
X003370Y014405D01*
X003353Y014441D01*
X003333Y014474D01*
X003309Y014506D01*
X003283Y014535D01*
X003254Y014561D01*
X003222Y014585D01*
X003189Y014605D01*
X003153Y014622D01*
X003116Y014635D01*
X003078Y014644D01*
X003039Y014650D01*
X003000Y014652D01*
X003000Y015402D01*
X007000Y015402D01*
X007000Y013102D01*
X003000Y013102D01*
X002568Y014082D02*
X002455Y014082D01*
X002398Y014139D01*
X002257Y014082D02*
X002030Y014082D01*
X002143Y014082D02*
X002143Y014423D01*
X002030Y014309D01*
X002398Y014366D02*
X002455Y014423D01*
X002568Y014423D01*
X002625Y014366D01*
X002625Y014309D01*
X002568Y014253D01*
X002625Y014196D01*
X002625Y014139D01*
X002568Y014082D01*
X002568Y014253D02*
X002512Y014253D01*
X002625Y015082D02*
X002398Y015082D01*
X002625Y015309D01*
X002625Y015366D01*
X002568Y015423D01*
X002455Y015423D01*
X002398Y015366D01*
X002257Y015082D02*
X002030Y015082D01*
X002143Y015082D02*
X002143Y015423D01*
X002030Y015309D01*
X002030Y016082D02*
X002257Y016082D01*
X002143Y016082D02*
X002143Y016423D01*
X002030Y016309D01*
X002398Y016309D02*
X002512Y016423D01*
X002512Y016082D01*
X002625Y016082D02*
X002398Y016082D01*
X002455Y017082D02*
X002398Y017139D01*
X002625Y017366D01*
X002625Y017139D01*
X002568Y017082D01*
X002455Y017082D01*
X002398Y017139D02*
X002398Y017366D01*
X002455Y017423D01*
X002568Y017423D01*
X002625Y017366D01*
X003000Y017602D02*
X003000Y018352D01*
X003039Y018354D01*
X003078Y018360D01*
X003116Y018369D01*
X003153Y018382D01*
X003189Y018399D01*
X003222Y018419D01*
X003254Y018443D01*
X003283Y018469D01*
X003309Y018498D01*
X003333Y018530D01*
X003353Y018563D01*
X003370Y018599D01*
X003383Y018636D01*
X003392Y018674D01*
X003398Y018713D01*
X003400Y018752D01*
X003398Y018791D01*
X003392Y018830D01*
X003383Y018868D01*
X003370Y018905D01*
X003353Y018941D01*
X003333Y018974D01*
X003309Y019006D01*
X003283Y019035D01*
X003254Y019061D01*
X003222Y019085D01*
X003189Y019105D01*
X003153Y019122D01*
X003116Y019135D01*
X003078Y019144D01*
X003039Y019150D01*
X003000Y019152D01*
X003000Y019902D01*
X007000Y019902D01*
X007000Y017602D01*
X003000Y017602D01*
X002257Y017082D02*
X002030Y017082D01*
X002143Y017082D02*
X002143Y017423D01*
X002030Y017309D01*
X002087Y018082D02*
X002200Y018082D01*
X002257Y018139D01*
X002257Y018366D01*
X002200Y018423D01*
X002087Y018423D01*
X002030Y018366D01*
X002030Y018309D01*
X002087Y018253D01*
X002257Y018253D01*
X002087Y018082D02*
X002030Y018139D01*
X002087Y019082D02*
X002030Y019139D01*
X002030Y019196D01*
X002087Y019253D01*
X002200Y019253D01*
X002257Y019196D01*
X002257Y019139D01*
X002200Y019082D01*
X002087Y019082D01*
X002087Y019253D02*
X002030Y019309D01*
X002030Y019366D01*
X002087Y019423D01*
X002200Y019423D01*
X002257Y019366D01*
X002257Y019309D01*
X002200Y019253D01*
X002030Y020582D02*
X002030Y020639D01*
X002257Y020866D01*
X002257Y020923D01*
X002030Y020923D01*
X002087Y021582D02*
X002200Y021582D01*
X002257Y021639D01*
X002257Y021696D01*
X002200Y021753D01*
X002030Y021753D01*
X002030Y021639D01*
X002087Y021582D01*
X002030Y021753D02*
X002143Y021866D01*
X002257Y021923D01*
X002200Y022582D02*
X002087Y022582D01*
X002030Y022639D01*
X002030Y022753D02*
X002143Y022809D01*
X002200Y022809D01*
X002257Y022753D01*
X002257Y022639D01*
X002200Y022582D01*
X002030Y022753D02*
X002030Y022923D01*
X002257Y022923D01*
X002200Y023582D02*
X002200Y023923D01*
X002030Y023753D01*
X002257Y023753D01*
X002200Y024582D02*
X002087Y024582D01*
X002030Y024639D01*
X002143Y024753D02*
X002200Y024753D01*
X002257Y024696D01*
X002257Y024639D01*
X002200Y024582D01*
X002200Y024753D02*
X002257Y024809D01*
X002257Y024866D01*
X002200Y024923D01*
X002087Y024923D01*
X002030Y024866D01*
X002030Y025582D02*
X002257Y025809D01*
X002257Y025866D01*
X002200Y025923D01*
X002087Y025923D01*
X002030Y025866D01*
X002030Y025582D02*
X002257Y025582D01*
X002143Y026582D02*
X002143Y026923D01*
X002030Y026923D02*
X002257Y026923D01*
X002398Y026923D02*
X002625Y026582D01*
X002398Y026582D02*
X002625Y026923D01*
X002625Y027582D02*
X002398Y027923D01*
X002257Y027866D02*
X002257Y027753D01*
X002200Y027696D01*
X002030Y027696D01*
X002143Y027696D02*
X002257Y027582D01*
X002398Y027582D02*
X002625Y027923D01*
X002257Y027866D02*
X002200Y027923D01*
X002030Y027923D01*
X002030Y027582D01*
X008000Y019902D02*
X008000Y019152D01*
X008039Y019150D01*
X008078Y019144D01*
X008116Y019135D01*
X008153Y019122D01*
X008189Y019105D01*
X008222Y019085D01*
X008254Y019061D01*
X008283Y019035D01*
X008309Y019006D01*
X008333Y018974D01*
X008353Y018941D01*
X008370Y018905D01*
X008383Y018868D01*
X008392Y018830D01*
X008398Y018791D01*
X008400Y018752D01*
X008398Y018713D01*
X008392Y018674D01*
X008383Y018636D01*
X008370Y018599D01*
X008353Y018563D01*
X008333Y018530D01*
X008309Y018498D01*
X008283Y018469D01*
X008254Y018443D01*
X008222Y018419D01*
X008189Y018399D01*
X008153Y018382D01*
X008116Y018369D01*
X008078Y018360D01*
X008039Y018354D01*
X008000Y018352D01*
X008000Y017602D01*
X012000Y017602D01*
X012000Y019902D01*
X008000Y019902D01*
X008500Y015402D02*
X008500Y014652D01*
X008539Y014650D01*
X008578Y014644D01*
X008616Y014635D01*
X008653Y014622D01*
X008689Y014605D01*
X008722Y014585D01*
X008754Y014561D01*
X008783Y014535D01*
X008809Y014506D01*
X008833Y014474D01*
X008853Y014441D01*
X008870Y014405D01*
X008883Y014368D01*
X008892Y014330D01*
X008898Y014291D01*
X008900Y014252D01*
X008898Y014213D01*
X008892Y014174D01*
X008883Y014136D01*
X008870Y014099D01*
X008853Y014063D01*
X008833Y014030D01*
X008809Y013998D01*
X008783Y013969D01*
X008754Y013943D01*
X008722Y013919D01*
X008689Y013899D01*
X008653Y013882D01*
X008616Y013869D01*
X008578Y013860D01*
X008539Y013854D01*
X008500Y013852D01*
X008500Y013102D01*
X015500Y013102D01*
X015500Y015402D01*
X008500Y015402D01*
X013000Y017602D02*
X013000Y018352D01*
X013039Y018354D01*
X013078Y018360D01*
X013116Y018369D01*
X013153Y018382D01*
X013189Y018399D01*
X013222Y018419D01*
X013254Y018443D01*
X013283Y018469D01*
X013309Y018498D01*
X013333Y018530D01*
X013353Y018563D01*
X013370Y018599D01*
X013383Y018636D01*
X013392Y018674D01*
X013398Y018713D01*
X013400Y018752D01*
X013398Y018791D01*
X013392Y018830D01*
X013383Y018868D01*
X013370Y018905D01*
X013353Y018941D01*
X013333Y018974D01*
X013309Y019006D01*
X013283Y019035D01*
X013254Y019061D01*
X013222Y019085D01*
X013189Y019105D01*
X013153Y019122D01*
X013116Y019135D01*
X013078Y019144D01*
X013039Y019150D01*
X013000Y019152D01*
X013000Y019902D01*
X017000Y019902D01*
X017000Y017602D01*
X013000Y017602D01*
X016050Y014552D02*
X017350Y014552D01*
X018650Y014552D01*
X018650Y014352D01*
X017350Y014352D01*
X017350Y014552D01*
X017250Y014052D02*
X018750Y014052D01*
X018750Y013452D01*
X017250Y013452D01*
X017250Y014052D01*
X017250Y013052D02*
X018750Y013052D01*
X018750Y012452D01*
X017250Y012452D01*
X017250Y013052D01*
X017250Y012052D02*
X018750Y012052D01*
X018750Y011452D01*
X017250Y011452D01*
X017250Y012052D01*
X017250Y011052D02*
X018750Y011052D01*
X018750Y010452D01*
X017250Y010452D01*
X017250Y011052D01*
X017350Y010152D02*
X017350Y009952D01*
X018650Y009952D01*
X019950Y009952D01*
X019950Y014552D01*
X018650Y014552D01*
X018880Y015582D02*
X018880Y015923D01*
X019050Y015923D01*
X019107Y015866D01*
X019107Y015753D01*
X019050Y015696D01*
X018880Y015696D01*
X018993Y015696D02*
X019107Y015582D01*
X019248Y015639D02*
X019305Y015582D01*
X019419Y015582D01*
X019475Y015639D01*
X019475Y015696D01*
X019419Y015753D01*
X019305Y015753D01*
X019248Y015809D01*
X019248Y015866D01*
X019305Y015923D01*
X019419Y015923D01*
X019475Y015866D01*
X019617Y015923D02*
X019844Y015923D01*
X019730Y015923D02*
X019730Y015582D01*
X019730Y016582D02*
X019844Y016696D01*
X019844Y016923D01*
X019617Y016923D02*
X019617Y016696D01*
X019730Y016582D01*
X019475Y016639D02*
X019419Y016582D01*
X019305Y016582D01*
X019248Y016639D01*
X019121Y016639D02*
X019121Y016582D01*
X019064Y016582D01*
X019064Y016639D01*
X019121Y016639D01*
X018923Y016639D02*
X018923Y016696D01*
X018866Y016753D01*
X018809Y016753D01*
X018866Y016753D02*
X018923Y016809D01*
X018923Y016866D01*
X018866Y016923D01*
X018753Y016923D01*
X018696Y016866D01*
X018554Y016753D02*
X018328Y016753D01*
X018441Y016866D02*
X018441Y016639D01*
X018696Y016639D02*
X018753Y016582D01*
X018866Y016582D01*
X018923Y016639D01*
X019248Y016866D02*
X019305Y016923D01*
X019419Y016923D01*
X019475Y016866D01*
X019475Y016809D01*
X019419Y016753D01*
X019475Y016696D01*
X019475Y016639D01*
X019419Y016753D02*
X019362Y016753D01*
X019419Y017582D02*
X019305Y017582D01*
X019248Y017639D01*
X019248Y017753D02*
X019362Y017809D01*
X019419Y017809D01*
X019475Y017753D01*
X019475Y017639D01*
X019419Y017582D01*
X019617Y017696D02*
X019730Y017582D01*
X019844Y017696D01*
X019844Y017923D01*
X019617Y017923D02*
X019617Y017696D01*
X019475Y017923D02*
X019248Y017923D01*
X019248Y017753D01*
X019107Y017753D02*
X018880Y017753D01*
X018993Y017866D02*
X018993Y017639D01*
X018937Y018582D02*
X019050Y018582D01*
X019107Y018639D01*
X019107Y018753D01*
X018993Y018753D01*
X018880Y018866D02*
X018880Y018639D01*
X018937Y018582D01*
X018880Y018866D02*
X018937Y018923D01*
X019050Y018923D01*
X019107Y018866D01*
X019248Y018923D02*
X019475Y018582D01*
X019475Y018923D01*
X019617Y018923D02*
X019617Y018582D01*
X019787Y018582D01*
X019844Y018639D01*
X019844Y018866D01*
X019787Y018923D01*
X019617Y018923D01*
X019248Y018923D02*
X019248Y018582D01*
X019248Y019582D02*
X019248Y019923D01*
X019475Y019582D01*
X019475Y019923D01*
X019617Y019923D02*
X019617Y019582D01*
X019787Y019582D01*
X019844Y019639D01*
X019844Y019866D01*
X019787Y019923D01*
X019617Y019923D01*
X019107Y019866D02*
X019050Y019923D01*
X018937Y019923D01*
X018880Y019866D01*
X018880Y019639D01*
X018937Y019582D01*
X019050Y019582D01*
X019107Y019639D01*
X019107Y019753D01*
X018993Y019753D01*
X019116Y020582D02*
X019230Y020696D01*
X019230Y020923D01*
X019371Y020923D02*
X019485Y020923D01*
X019428Y020923D02*
X019428Y020582D01*
X019371Y020582D02*
X019485Y020582D01*
X019617Y020582D02*
X019617Y020923D01*
X019844Y020582D01*
X019844Y020923D01*
X019116Y020582D02*
X019003Y020696D01*
X019003Y020923D01*
X019673Y022582D02*
X019617Y022639D01*
X019844Y022866D01*
X019844Y022639D01*
X019787Y022582D01*
X019673Y022582D01*
X019617Y022639D02*
X019617Y022866D01*
X019673Y022923D01*
X019787Y022923D01*
X019844Y022866D01*
X019844Y023582D02*
X019617Y023582D01*
X019730Y023582D02*
X019730Y023923D01*
X019617Y023809D01*
X019325Y023763D02*
X019098Y023763D01*
X018985Y023877D01*
X019098Y023990D01*
X019325Y023990D01*
X019325Y024131D02*
X019098Y024131D01*
X019098Y024302D01*
X019155Y024358D01*
X019325Y024358D01*
X019268Y024500D02*
X019325Y024556D01*
X019325Y024727D01*
X019155Y024727D01*
X019098Y024670D01*
X019098Y024556D01*
X019212Y024556D02*
X019212Y024727D01*
X019212Y024556D02*
X019268Y024500D01*
X019325Y024868D02*
X019325Y024981D01*
X019325Y024925D02*
X018985Y024925D01*
X018985Y024868D01*
X019155Y025114D02*
X019268Y025114D01*
X019325Y025170D01*
X019325Y025284D01*
X019268Y025340D01*
X019155Y025340D01*
X019098Y025284D01*
X019098Y025170D01*
X019155Y025114D01*
X019155Y025482D02*
X019268Y025482D01*
X019325Y025539D01*
X019325Y025709D01*
X019382Y025709D02*
X019098Y025709D01*
X019098Y025539D01*
X019155Y025482D01*
X019438Y025595D02*
X019438Y025652D01*
X019382Y025709D01*
X019617Y025639D02*
X019673Y025582D01*
X019787Y025582D01*
X019844Y025639D01*
X019844Y025696D01*
X019787Y025753D01*
X019730Y025753D01*
X019787Y025753D02*
X019844Y025809D01*
X019844Y025866D01*
X019787Y025923D01*
X019673Y025923D01*
X019617Y025866D01*
X019325Y026219D02*
X019325Y026332D01*
X019325Y026275D02*
X018985Y026275D01*
X018985Y026219D02*
X018985Y026332D01*
X019098Y026464D02*
X019098Y026634D01*
X019155Y026691D01*
X019325Y026691D01*
X019325Y026464D02*
X019098Y026464D01*
X019617Y026753D02*
X019844Y026753D01*
X019787Y026923D02*
X019617Y026753D01*
X019787Y026923D02*
X019787Y026582D01*
X019787Y027582D02*
X019673Y027582D01*
X019617Y027639D01*
X019617Y027753D02*
X019730Y027809D01*
X019787Y027809D01*
X019844Y027753D01*
X019844Y027639D01*
X019787Y027582D01*
X019617Y027753D02*
X019617Y027923D01*
X019844Y027923D01*
X019787Y024923D02*
X019673Y024923D01*
X019617Y024866D01*
X019787Y024923D02*
X019844Y024866D01*
X019844Y024809D01*
X019617Y024582D01*
X019844Y024582D01*
X019155Y023990D02*
X019155Y023763D01*
X016050Y014552D02*
X016050Y009952D01*
X017350Y009952D01*
X017350Y010152D02*
X018650Y010152D01*
X018650Y009952D01*
D11*
X018575Y010752D03*
X018325Y010752D03*
X018075Y010752D03*
X018075Y011752D03*
X018325Y011752D03*
X018575Y011752D03*
X018575Y012752D03*
X018325Y012752D03*
X018075Y012752D03*
X018075Y013752D03*
X018325Y013752D03*
X018575Y013752D03*
D12*
X003028Y010493D02*
X003028Y008012D01*
X003972Y008012D01*
X003972Y010493D01*
X003028Y010493D01*
X005028Y010493D02*
X005028Y008012D01*
X005972Y008012D01*
X005972Y010493D01*
X005028Y010493D01*
X007028Y010493D02*
X007028Y008012D01*
X007972Y008012D01*
X007972Y010493D01*
X007028Y010493D01*
X009028Y010493D02*
X009028Y008012D01*
X009972Y008012D01*
X009972Y010493D01*
X009028Y010493D01*
X009657Y021453D02*
X003280Y021453D01*
X003280Y021847D01*
X009657Y021847D01*
X009657Y021453D01*
X009657Y021847D02*
X009657Y024406D01*
X003280Y024406D01*
X003280Y021847D01*
X003343Y025099D02*
X003343Y027658D01*
X009720Y027658D01*
X009720Y025099D01*
X003343Y025099D01*
X003343Y027658D02*
X003343Y028052D01*
X009720Y028052D01*
X009720Y027658D01*
X010843Y027658D02*
X017220Y027658D01*
X017220Y025099D01*
X010843Y025099D01*
X010843Y027658D01*
X010843Y028052D01*
X017220Y028052D01*
X017220Y027658D01*
X017157Y024406D02*
X017157Y021847D01*
X010780Y021847D01*
X010780Y024406D01*
X017157Y024406D01*
X017157Y021847D02*
X017157Y021453D01*
X010780Y021453D01*
X010780Y021847D01*
D13*
X009625Y009147D02*
X009490Y009012D01*
X009535Y008967D02*
X009355Y009147D01*
X009355Y008967D02*
X009625Y008967D01*
X009580Y008852D02*
X009625Y008807D01*
X009625Y008717D01*
X009580Y008672D01*
X009400Y008852D01*
X009580Y008852D01*
X009580Y008672D02*
X009400Y008672D01*
X009355Y008717D01*
X009355Y008807D01*
X009400Y008852D01*
X009625Y008558D02*
X009625Y008377D01*
X009625Y008467D02*
X009355Y008467D01*
X009445Y008377D01*
X007625Y008377D02*
X007625Y008558D01*
X007625Y008467D02*
X007355Y008467D01*
X007445Y008377D01*
X007400Y008672D02*
X007355Y008717D01*
X007355Y008807D01*
X007400Y008852D01*
X007580Y008672D01*
X007625Y008717D01*
X007625Y008807D01*
X007580Y008852D01*
X007400Y008852D01*
X007355Y008967D02*
X007625Y008967D01*
X007535Y008967D02*
X007355Y009147D01*
X007490Y009012D02*
X007625Y009147D01*
X007580Y008672D02*
X007400Y008672D01*
X005625Y008717D02*
X005580Y008672D01*
X005400Y008852D01*
X005580Y008852D01*
X005625Y008807D01*
X005625Y008717D01*
X005580Y008672D02*
X005400Y008672D01*
X005355Y008717D01*
X005355Y008807D01*
X005400Y008852D01*
X005355Y008967D02*
X005625Y008967D01*
X005535Y008967D02*
X005355Y009147D01*
X005490Y009012D02*
X005625Y009147D01*
X005625Y008558D02*
X005625Y008377D01*
X005625Y008467D02*
X005355Y008467D01*
X005445Y008377D01*
X003625Y008377D02*
X003625Y008558D01*
X003625Y008467D02*
X003355Y008467D01*
X003445Y008377D01*
X003400Y008672D02*
X003355Y008717D01*
X003355Y008807D01*
X003400Y008852D01*
X003580Y008672D01*
X003625Y008717D01*
X003625Y008807D01*
X003580Y008852D01*
X003400Y008852D01*
X003355Y008967D02*
X003625Y008967D01*
X003535Y008967D02*
X003355Y009147D01*
X003490Y009012D02*
X003625Y009147D01*
X003580Y008672D02*
X003400Y008672D01*
M02*
