G75*
G70*
%OFA0B0*%
%FSLAX24Y24*%
%IPPOS*%
%LPD*%
%AMOC8*
5,1,8,0,0,1.08239X$1,22.5*
%
%ADD10C,0.0740*%
%ADD11C,0.0560*%
%ADD12R,0.0950X0.0950*%
%ADD13C,0.0950*%
%ADD14C,0.0080*%
%ADD15C,0.0400*%
D10*
X003500Y007252D03*
X005500Y007252D03*
X007500Y007252D03*
X009500Y007252D03*
X009500Y011252D03*
X007500Y011252D03*
X005500Y011252D03*
X003500Y011252D03*
X001500Y012252D03*
X001500Y013252D03*
X001500Y014252D03*
X001500Y015252D03*
X001500Y016252D03*
X001500Y017252D03*
X001500Y018252D03*
X001500Y019252D03*
X001500Y020752D03*
X001500Y021752D03*
X001500Y022752D03*
X001500Y023752D03*
X001500Y024752D03*
X001500Y025752D03*
X001500Y026752D03*
X001500Y027752D03*
X020500Y027752D03*
X020500Y026752D03*
X020500Y025752D03*
X020500Y024752D03*
X020500Y023752D03*
X020500Y022752D03*
X020500Y020752D03*
X020500Y019752D03*
X020500Y018752D03*
X020500Y017752D03*
X020500Y016752D03*
X020500Y015752D03*
D11*
X019780Y013752D02*
X019220Y013752D01*
X019220Y012752D02*
X019780Y012752D01*
X019780Y011752D02*
X019220Y011752D01*
X019220Y010752D02*
X019780Y010752D01*
X016780Y010752D02*
X016220Y010752D01*
X016220Y011752D02*
X016780Y011752D01*
X016780Y012752D02*
X016220Y012752D01*
X016220Y013752D02*
X016780Y013752D01*
X015000Y013032D02*
X015000Y012472D01*
X014000Y012472D02*
X014000Y013032D01*
X013000Y013032D02*
X013000Y012472D01*
X012000Y012472D02*
X012000Y013032D01*
X011000Y013032D02*
X011000Y012472D01*
X010000Y012472D02*
X010000Y013032D01*
X009000Y013032D02*
X009000Y012472D01*
X007000Y012472D02*
X007000Y013032D01*
X006000Y013032D02*
X006000Y012472D01*
X005000Y012472D02*
X005000Y013032D01*
X004000Y013032D02*
X004000Y012472D01*
X004000Y015472D02*
X004000Y016032D01*
X004000Y016972D02*
X004000Y017532D01*
X005000Y017532D02*
X005000Y016972D01*
X005000Y016032D02*
X005000Y015472D01*
X006000Y015472D02*
X006000Y016032D01*
X006000Y016972D02*
X006000Y017532D01*
X007000Y017532D02*
X007000Y016972D01*
X007000Y016032D02*
X007000Y015472D01*
X009000Y015472D02*
X009000Y016032D01*
X009000Y016972D02*
X009000Y017532D01*
X010000Y017532D02*
X010000Y016972D01*
X010000Y016032D02*
X010000Y015472D01*
X011000Y015472D02*
X011000Y016032D01*
X011000Y016972D02*
X011000Y017532D01*
X012000Y017532D02*
X012000Y016972D01*
X012000Y016032D02*
X012000Y015472D01*
X013000Y015472D02*
X013000Y016032D01*
X014000Y016032D02*
X014000Y015472D01*
X015000Y015472D02*
X015000Y016032D01*
X015000Y016972D02*
X015000Y017532D01*
X016000Y017532D02*
X016000Y016972D01*
X017000Y016972D02*
X017000Y017532D01*
X017000Y019972D02*
X017000Y020532D01*
X016000Y020532D02*
X016000Y019972D01*
X015000Y019972D02*
X015000Y020532D01*
X014000Y020532D02*
X014000Y019972D01*
X014000Y017532D02*
X014000Y016972D01*
X012000Y019972D02*
X012000Y020532D01*
X011000Y020532D02*
X011000Y019972D01*
X010000Y019972D02*
X010000Y020532D01*
X009000Y020532D02*
X009000Y019972D01*
X007000Y019972D02*
X007000Y020532D01*
X006000Y020532D02*
X006000Y019972D01*
X005000Y019972D02*
X005000Y020532D01*
X004000Y020532D02*
X004000Y019972D01*
D12*
X004500Y022752D03*
X008500Y026752D03*
X012000Y022752D03*
X016000Y026752D03*
D13*
X014031Y026752D03*
X012063Y026752D03*
X013969Y022752D03*
X015937Y022752D03*
X008437Y022752D03*
X006469Y022752D03*
X006531Y026752D03*
X004563Y026752D03*
D14*
X005000Y026752D01*
X005000Y024752D01*
X015500Y024752D01*
X020000Y020252D01*
X020000Y018752D01*
X020500Y018752D01*
X018500Y014752D02*
X019500Y013752D01*
X020500Y012752D01*
X020500Y010252D01*
X004500Y010252D01*
X003500Y011252D01*
X004000Y012752D02*
X005000Y013752D01*
X001000Y013752D01*
X001000Y018752D01*
X001500Y019252D01*
X001500Y018252D02*
X003500Y020252D01*
X003500Y024252D01*
X015500Y024252D01*
X017500Y022252D01*
X017500Y018252D01*
X016000Y018252D01*
X017000Y017252D01*
X016000Y018252D02*
X015000Y018252D01*
X014000Y017252D01*
X014000Y015752D02*
X015000Y014752D01*
X018500Y014752D01*
X019000Y013252D02*
X015500Y013252D01*
X015000Y013752D01*
X012000Y013752D01*
X013000Y012752D01*
X014000Y014252D02*
X013500Y014752D01*
X012000Y014752D01*
X011500Y015252D01*
X011500Y017252D01*
X011000Y017252D01*
X010500Y017252D02*
X010000Y017252D01*
X010500Y017252D02*
X010500Y015252D01*
X012000Y013752D01*
X011000Y012752D02*
X010000Y011752D01*
X015000Y011752D01*
X015500Y012252D01*
X019000Y012252D01*
X019500Y011752D01*
X019000Y011252D02*
X019500Y010752D01*
X019000Y011252D02*
X009500Y011252D01*
X010000Y011752D02*
X008000Y011752D01*
X007500Y011252D01*
X007500Y011752D02*
X008500Y012752D01*
X009000Y012752D01*
X008000Y014752D02*
X004000Y014752D01*
X002500Y016252D01*
X003000Y016252D01*
X004000Y017252D01*
X002500Y016252D02*
X001500Y016252D01*
X001500Y017252D02*
X002500Y018252D01*
X010000Y018252D01*
X011000Y018252D01*
X012000Y017252D01*
X013000Y019252D02*
X013500Y019252D01*
X013500Y015252D01*
X014500Y014252D01*
X016000Y014252D01*
X016500Y013752D01*
X019000Y013252D02*
X019500Y012752D01*
X017000Y020252D02*
X015000Y022252D01*
X014000Y021252D01*
X013000Y021252D01*
X008000Y021252D01*
X007000Y020252D01*
X007500Y021752D02*
X006500Y022752D01*
X006469Y022752D01*
X007500Y021752D02*
X013500Y021752D01*
X013000Y021252D02*
X012000Y020252D01*
X013000Y019252D02*
X010000Y019252D01*
X005000Y019252D01*
X004000Y020252D01*
X007000Y017252D02*
X008000Y016252D01*
X008000Y014752D01*
X007000Y012752D02*
X006000Y013752D01*
X005000Y013752D01*
X005000Y012752D02*
X006000Y011752D01*
X007500Y011752D01*
X009000Y017252D02*
X010000Y018252D01*
X010000Y019252D02*
X009000Y020252D01*
X008500Y022752D02*
X008437Y022752D01*
X008500Y022752D02*
X009500Y023752D01*
X014500Y023752D01*
X015500Y022752D01*
X015937Y022752D01*
X015500Y022752D02*
X015000Y022252D01*
X014000Y020252D02*
X013000Y019252D01*
X011000Y025752D02*
X012000Y026752D01*
X012063Y026752D01*
X011000Y025752D02*
X006000Y025752D01*
X005000Y026752D01*
D15*
X013500Y021752D03*
X014000Y014252D03*
M02*
